<svg width="166" height="32" fill="none" xmlns="http://www.w3.org/2000/svg"><path d="M11.831 17.92H1.228V31H.094V.43h9.742c3.066 0 5.501.79 7.307 2.372 1.82 1.582 2.73 3.73 2.73 6.446 0 2.086-.651 3.912-1.953 5.48-1.288 1.554-2.933 2.52-4.934 2.897l8.167 13.081V31h-1.197l-8.125-13.08zM1.228 16.785h9.637c2.352 0 4.248-.714 5.69-2.142 1.456-1.428 2.184-3.226 2.184-5.396 0-2.38-.805-4.255-2.415-5.627-1.596-1.372-3.786-2.058-6.572-2.058H1.228v15.223zm39.697-.945H25.598v14.025h17.468V31H24.464V.43h18.602v1.133H25.598v13.144h15.327v1.134zM67.1 31h-1.133L46.23 2.361V31h-1.155V.43h1.155l19.736 28.575V.43H67.1V31zM91.365 1.563H80.237V31h-1.134V1.563H67.975V.43h23.39v1.133zm24.013 19.254c-.238 3.29-1.456 5.879-3.653 7.768-2.184 1.89-5.067 2.835-8.651 2.835-3.919 0-7.006-1.316-9.26-3.947-2.239-2.646-3.358-6.271-3.358-10.876v-1.869c0-2.94.517-5.529 1.553-7.769s2.513-3.954 4.43-5.144C98.371.612 100.611.01 103.158.01c3.528 0 6.369.945 8.525 2.834 2.155 1.89 3.401 4.542 3.737 7.958h-6.299c-.154-1.974-.707-3.402-1.659-4.283-.937-.896-2.372-1.344-4.304-1.344-2.099 0-3.674.756-4.724 2.267-1.036 1.498-1.568 3.829-1.596 6.992v2.31c0 3.303.497 5.718 1.491 7.243 1.008 1.526 2.59 2.289 4.745 2.289 1.946 0 3.395-.441 4.346-1.323.966-.896 1.519-2.274 1.659-4.136h6.299zm17.525 3.884h-11.044l-2.1 6.299h-6.697L124.441.43h5.837L141.721 31h-6.697l-2.121-6.299zM123.56 19.6h7.642L127.36 8.156l-3.8 11.443zm29.324.21h-5.018V31h-6.299V.43h11.359c3.611 0 6.396.805 8.356 2.414 1.96 1.61 2.94 3.885 2.94 6.824 0 2.086-.455 3.828-1.365 5.228-.896 1.386-2.261 2.491-4.094 3.317l6.613 12.493V31h-6.76l-5.732-11.19zm-5.018-5.102h5.081c1.581 0 2.806-.399 3.674-1.197.868-.812 1.302-1.924 1.302-3.338 0-1.442-.413-2.576-1.239-3.401-.812-.826-2.065-1.24-3.758-1.24h-5.06v9.176z" fill="#000"/></svg>